<svg xmlns="http://www.w3.org/2000/svg" width="900" height="900" viewBox="0 0 900 900"><defs><linearGradient id="g" x1="0" x2="1"><stop stop-color="#fff0bd"/><stop offset=".5" stop-color="#c79845"/><stop offset="1" stop-color="#7a4a18"/></linearGradient></defs><path d="M70 250C90 130 150 70 270 50M90 190c70-8 106-46 126-116M706 50c120 20 180 80 200 200M790 74c20 70 56 108 126 116M70 650c20 120 80 180 200 200M90 710c70 8 106 46 126 116M706 850c120-20 180-80 200-200M790 826c20-70 56-108 126-116" fill="none" stroke="url(#g)" stroke-width="5" stroke-linecap="round" opacity=".62"/></svg>