<svg xmlns="http://www.w3.org/2000/svg" viewBox="0 0 320 32" role="img" aria-hidden="true">
  <defs>
    <linearGradient id="gold" x1="0" x2="1" y1="0" y2="0">
      <stop offset="0" stop-color="#b88452" stop-opacity="0"/>
      <stop offset=".18" stop-color="#c99b65" stop-opacity=".7"/>
      <stop offset=".5" stop-color="#9b6a3e"/>
      <stop offset=".82" stop-color="#c99b65" stop-opacity=".7"/>
      <stop offset="1" stop-color="#b88452" stop-opacity="0"/>
    </linearGradient>
  </defs>
  <path d="M18 16h103" fill="none" stroke="url(#gold)" stroke-width="1"/>
  <path d="M199 16h103" fill="none" stroke="url(#gold)" stroke-width="1"/>
  <path d="M160 22c-8-5-17-11-17-18 0-4 3-7 7-7 4 0 7 3 10 7 3-4 6-7 10-7 4 0 7 3 7 7 0 7-9 13-17 18z" transform="translate(0 4) scale(.62) translate(98 2)" fill="#c99b65" opacity=".72"/>
  <path d="M136 16c7-7 15-7 24 0 9-7 17-7 24 0-7 7-15 7-24 0-9 7-17 7-24 0z" fill="none" stroke="#a87545" stroke-width="1" opacity=".62"/>
  <circle cx="128" cy="16" r="2" fill="#c99b65" opacity=".55"/>
  <circle cx="192" cy="16" r="2" fill="#c99b65" opacity=".55"/>
</svg>
